<mxfile host="app.diagrams.net" agent="Mozilla/5.0 (Macintosh; Intel Mac OS X 10_15_7) AppleWebKit/537.36 (KHTML, like Gecko) Chrome/126.0.0.0 Safari/537.36" version="24.7.7">
  <diagram name="第 1 页" id="IfR0F0eXtp_YUX7GGGnf">
    <mxGraphModel dx="1647" dy="893" grid="0" gridSize="10" guides="1" tooltips="1" connect="1" arrows="1" fold="1" page="0" pageScale="1" pageWidth="827" pageHeight="1169" math="0" shadow="0">
      <root>
        <mxCell id="0" />
        <mxCell id="1" parent="0" />
        <mxCell id="ESgD27TMCKR_9v-paacK-3" value="" style="edgeStyle=orthogonalEdgeStyle;rounded=0;orthogonalLoop=1;jettySize=auto;html=1;" parent="1" source="ESgD27TMCKR_9v-paacK-1" target="ESgD27TMCKR_9v-paacK-2" edge="1">
          <mxGeometry relative="1" as="geometry" />
        </mxCell>
        <mxCell id="ESgD27TMCKR_9v-paacK-4" value="活动开始" style="edgeLabel;html=1;align=center;verticalAlign=middle;resizable=0;points=[];" parent="ESgD27TMCKR_9v-paacK-3" vertex="1" connectable="0">
          <mxGeometry x="-0.0812" relative="1" as="geometry">
            <mxPoint as="offset" />
          </mxGeometry>
        </mxCell>
        <mxCell id="ESgD27TMCKR_9v-paacK-1" value="择校活动" style="rounded=0;whiteSpace=wrap;html=1;" parent="1" vertex="1">
          <mxGeometry x="320" y="240" width="120" height="60" as="geometry" />
        </mxCell>
        <mxCell id="ESgD27TMCKR_9v-paacK-9" value="" style="edgeStyle=orthogonalEdgeStyle;rounded=0;orthogonalLoop=1;jettySize=auto;html=1;" parent="1" source="ESgD27TMCKR_9v-paacK-2" target="ESgD27TMCKR_9v-paacK-8" edge="1">
          <mxGeometry relative="1" as="geometry" />
        </mxCell>
        <mxCell id="ESgD27TMCKR_9v-paacK-2" value="开始择校" style="whiteSpace=wrap;html=1;rounded=0;" parent="1" vertex="1">
          <mxGeometry x="320" y="410" width="120" height="60" as="geometry" />
        </mxCell>
        <mxCell id="ESgD27TMCKR_9v-paacK-7" style="edgeStyle=orthogonalEdgeStyle;rounded=0;orthogonalLoop=1;jettySize=auto;html=1;entryX=0.5;entryY=0;entryDx=0;entryDy=0;" parent="1" source="ESgD27TMCKR_9v-paacK-5" target="ESgD27TMCKR_9v-paacK-1" edge="1">
          <mxGeometry relative="1" as="geometry" />
        </mxCell>
        <mxCell id="ESgD27TMCKR_9v-paacK-5" value="应届类专业" style="rounded=0;whiteSpace=wrap;html=1;" parent="1" vertex="1">
          <mxGeometry x="320" y="100" width="120" height="60" as="geometry" />
        </mxCell>
        <mxCell id="ESgD27TMCKR_9v-paacK-8" value="确认择校" style="whiteSpace=wrap;html=1;rounded=0;" parent="1" vertex="1">
          <mxGeometry x="320" y="550" width="120" height="60" as="geometry" />
        </mxCell>
        <mxCell id="ESgD27TMCKR_9v-paacK-29" style="edgeStyle=orthogonalEdgeStyle;rounded=0;orthogonalLoop=1;jettySize=auto;html=1;entryX=0.5;entryY=0;entryDx=0;entryDy=0;" parent="1" source="ESgD27TMCKR_9v-paacK-10" target="ESgD27TMCKR_9v-paacK-11" edge="1">
          <mxGeometry relative="1" as="geometry" />
        </mxCell>
        <mxCell id="ESgD27TMCKR_9v-paacK-10" value="应届类专业" style="rounded=0;whiteSpace=wrap;html=1;" parent="1" vertex="1">
          <mxGeometry x="650" y="100" width="120" height="60" as="geometry" />
        </mxCell>
        <mxCell id="ESgD27TMCKR_9v-paacK-14" value="" style="edgeStyle=orthogonalEdgeStyle;rounded=0;orthogonalLoop=1;jettySize=auto;html=1;" parent="1" source="ESgD27TMCKR_9v-paacK-11" target="ESgD27TMCKR_9v-paacK-13" edge="1">
          <mxGeometry relative="1" as="geometry" />
        </mxCell>
        <mxCell id="ESgD27TMCKR_9v-paacK-11" value="择校活动" style="rounded=0;whiteSpace=wrap;html=1;" parent="1" vertex="1">
          <mxGeometry x="650" y="230" width="120" height="60" as="geometry" />
        </mxCell>
        <mxCell id="ESgD27TMCKR_9v-paacK-16" value="" style="edgeStyle=orthogonalEdgeStyle;rounded=0;orthogonalLoop=1;jettySize=auto;html=1;" parent="1" source="ESgD27TMCKR_9v-paacK-13" target="ESgD27TMCKR_9v-paacK-15" edge="1">
          <mxGeometry relative="1" as="geometry" />
        </mxCell>
        <mxCell id="ESgD27TMCKR_9v-paacK-17" value="是" style="edgeLabel;html=1;align=center;verticalAlign=middle;resizable=0;points=[];" parent="ESgD27TMCKR_9v-paacK-16" vertex="1" connectable="0">
          <mxGeometry x="-0.0768" y="1" relative="1" as="geometry">
            <mxPoint x="-1" as="offset" />
          </mxGeometry>
        </mxCell>
        <mxCell id="ESgD27TMCKR_9v-paacK-19" value="否" style="edgeStyle=orthogonalEdgeStyle;rounded=0;orthogonalLoop=1;jettySize=auto;html=1;" parent="1" source="ESgD27TMCKR_9v-paacK-13" target="ESgD27TMCKR_9v-paacK-18" edge="1">
          <mxGeometry relative="1" as="geometry" />
        </mxCell>
        <mxCell id="ESgD27TMCKR_9v-paacK-13" value="择校是否开始" style="rhombus;whiteSpace=wrap;html=1;rounded=0;" parent="1" vertex="1">
          <mxGeometry x="650" y="340" width="120" height="70" as="geometry" />
        </mxCell>
        <mxCell id="ESgD27TMCKR_9v-paacK-21" value="" style="edgeStyle=orthogonalEdgeStyle;rounded=0;orthogonalLoop=1;jettySize=auto;html=1;" parent="1" source="ESgD27TMCKR_9v-paacK-15" target="ESgD27TMCKR_9v-paacK-20" edge="1">
          <mxGeometry relative="1" as="geometry" />
        </mxCell>
        <mxCell id="ESgD27TMCKR_9v-paacK-15" value="择校入口" style="whiteSpace=wrap;html=1;rounded=0;" parent="1" vertex="1">
          <mxGeometry x="650" y="495" width="120" height="60" as="geometry" />
        </mxCell>
        <mxCell id="ESgD27TMCKR_9v-paacK-18" value="提示未开始" style="whiteSpace=wrap;html=1;rounded=0;" parent="1" vertex="1">
          <mxGeometry x="850" y="345" width="120" height="60" as="geometry" />
        </mxCell>
        <mxCell id="ESgD27TMCKR_9v-paacK-23" value="是" style="edgeStyle=orthogonalEdgeStyle;rounded=0;orthogonalLoop=1;jettySize=auto;html=1;" parent="1" source="ESgD27TMCKR_9v-paacK-20" target="ESgD27TMCKR_9v-paacK-22" edge="1">
          <mxGeometry relative="1" as="geometry" />
        </mxCell>
        <mxCell id="ESgD27TMCKR_9v-paacK-25" value="" style="edgeStyle=orthogonalEdgeStyle;rounded=0;orthogonalLoop=1;jettySize=auto;html=1;" parent="1" source="ESgD27TMCKR_9v-paacK-20" target="ESgD27TMCKR_9v-paacK-24" edge="1">
          <mxGeometry relative="1" as="geometry" />
        </mxCell>
        <mxCell id="ESgD27TMCKR_9v-paacK-26" value="否" style="edgeLabel;html=1;align=center;verticalAlign=middle;resizable=0;points=[];" parent="ESgD27TMCKR_9v-paacK-25" vertex="1" connectable="0">
          <mxGeometry x="0.0223" y="-1" relative="1" as="geometry">
            <mxPoint as="offset" />
          </mxGeometry>
        </mxCell>
        <mxCell id="ESgD27TMCKR_9v-paacK-20" value="是否已经择校" style="rhombus;whiteSpace=wrap;html=1;rounded=0;" parent="1" vertex="1">
          <mxGeometry x="655" y="620" width="110" height="70" as="geometry" />
        </mxCell>
        <mxCell id="ESgD27TMCKR_9v-paacK-36" value="" style="edgeStyle=orthogonalEdgeStyle;rounded=0;orthogonalLoop=1;jettySize=auto;html=1;" parent="1" source="ESgD27TMCKR_9v-paacK-22" target="ESgD27TMCKR_9v-paacK-35" edge="1">
          <mxGeometry relative="1" as="geometry" />
        </mxCell>
        <mxCell id="ESgD27TMCKR_9v-paacK-22" value="择校报告" style="whiteSpace=wrap;html=1;rounded=0;" parent="1" vertex="1">
          <mxGeometry x="950" y="625" width="120" height="60" as="geometry" />
        </mxCell>
        <mxCell id="ESgD27TMCKR_9v-paacK-34" style="edgeStyle=orthogonalEdgeStyle;rounded=0;orthogonalLoop=1;jettySize=auto;html=1;entryX=0.5;entryY=0;entryDx=0;entryDy=0;" parent="1" source="ESgD27TMCKR_9v-paacK-24" target="ESgD27TMCKR_9v-paacK-27" edge="1">
          <mxGeometry relative="1" as="geometry">
            <mxPoint x="710" y="870" as="targetPoint" />
          </mxGeometry>
        </mxCell>
        <mxCell id="ESgD27TMCKR_9v-paacK-24" value="开始择校" style="whiteSpace=wrap;html=1;rounded=0;" parent="1" vertex="1">
          <mxGeometry x="650" y="760" width="120" height="60" as="geometry" />
        </mxCell>
        <mxCell id="ESgD27TMCKR_9v-paacK-31" value="" style="edgeStyle=orthogonalEdgeStyle;rounded=0;orthogonalLoop=1;jettySize=auto;html=1;" parent="1" source="ESgD27TMCKR_9v-paacK-27" target="ESgD27TMCKR_9v-paacK-30" edge="1">
          <mxGeometry relative="1" as="geometry" />
        </mxCell>
        <mxCell id="ESgD27TMCKR_9v-paacK-27" value="择校填写" style="whiteSpace=wrap;html=1;rounded=0;" parent="1" vertex="1">
          <mxGeometry x="650" y="887" width="120" height="60" as="geometry" />
        </mxCell>
        <mxCell id="ESgD27TMCKR_9v-paacK-41" value="" style="edgeStyle=orthogonalEdgeStyle;rounded=0;orthogonalLoop=1;jettySize=auto;html=1;" parent="1" source="ESgD27TMCKR_9v-paacK-30" target="ESgD27TMCKR_9v-paacK-40" edge="1">
          <mxGeometry relative="1" as="geometry" />
        </mxCell>
        <mxCell id="ESgD27TMCKR_9v-paacK-30" value="确认择校" style="whiteSpace=wrap;html=1;rounded=0;" parent="1" vertex="1">
          <mxGeometry x="650" y="1026" width="120" height="60" as="geometry" />
        </mxCell>
        <mxCell id="ESgD27TMCKR_9v-paacK-49" style="edgeStyle=orthogonalEdgeStyle;rounded=0;orthogonalLoop=1;jettySize=auto;html=1;" parent="1" source="ESgD27TMCKR_9v-paacK-35" edge="1">
          <mxGeometry relative="1" as="geometry">
            <mxPoint x="1010" y="878.6736907958984" as="targetPoint" />
          </mxGeometry>
        </mxCell>
        <mxCell id="ESgD27TMCKR_9v-paacK-52" value="是" style="edgeLabel;html=1;align=center;verticalAlign=middle;resizable=0;points=[];" parent="ESgD27TMCKR_9v-paacK-49" vertex="1" connectable="0">
          <mxGeometry x="-0.1921" y="1" relative="1" as="geometry">
            <mxPoint as="offset" />
          </mxGeometry>
        </mxCell>
        <mxCell id="ESgD27TMCKR_9v-paacK-61" style="edgeStyle=orthogonalEdgeStyle;rounded=0;orthogonalLoop=1;jettySize=auto;html=1;entryX=1;entryY=0.75;entryDx=0;entryDy=0;" parent="1" source="ESgD27TMCKR_9v-paacK-35" target="ESgD27TMCKR_9v-paacK-58" edge="1">
          <mxGeometry relative="1" as="geometry">
            <Array as="points">
              <mxPoint x="1130" y="788" />
              <mxPoint x="1130" y="1097" />
            </Array>
          </mxGeometry>
        </mxCell>
        <mxCell id="ESgD27TMCKR_9v-paacK-62" value="否" style="edgeLabel;html=1;align=center;verticalAlign=middle;resizable=0;points=[];" parent="ESgD27TMCKR_9v-paacK-61" vertex="1" connectable="0">
          <mxGeometry x="-0.1493" y="3" relative="1" as="geometry">
            <mxPoint as="offset" />
          </mxGeometry>
        </mxCell>
        <mxCell id="ESgD27TMCKR_9v-paacK-35" value="是否修改择校" style="rhombus;whiteSpace=wrap;html=1;rounded=0;" parent="1" vertex="1">
          <mxGeometry x="940" y="748" width="140" height="80" as="geometry" />
        </mxCell>
        <mxCell id="ESgD27TMCKR_9v-paacK-40" value="择校报告" style="whiteSpace=wrap;html=1;rounded=0;" parent="1" vertex="1">
          <mxGeometry x="650" y="1160" width="120" height="60" as="geometry" />
        </mxCell>
        <mxCell id="ESgD27TMCKR_9v-paacK-50" style="edgeStyle=orthogonalEdgeStyle;rounded=0;orthogonalLoop=1;jettySize=auto;html=1;" parent="1" source="ESgD27TMCKR_9v-paacK-48" edge="1">
          <mxGeometry relative="1" as="geometry">
            <mxPoint x="775.2257537841797" y="920" as="targetPoint" />
          </mxGeometry>
        </mxCell>
        <mxCell id="ESgD27TMCKR_9v-paacK-51" value="否" style="edgeLabel;html=1;align=center;verticalAlign=middle;resizable=0;points=[];" parent="ESgD27TMCKR_9v-paacK-50" vertex="1" connectable="0">
          <mxGeometry x="0.0503" y="-1" relative="1" as="geometry">
            <mxPoint as="offset" />
          </mxGeometry>
        </mxCell>
        <mxCell id="ESgD27TMCKR_9v-paacK-59" value="" style="edgeStyle=orthogonalEdgeStyle;rounded=0;orthogonalLoop=1;jettySize=auto;html=1;" parent="1" source="ESgD27TMCKR_9v-paacK-48" target="ESgD27TMCKR_9v-paacK-58" edge="1">
          <mxGeometry relative="1" as="geometry" />
        </mxCell>
        <mxCell id="ESgD27TMCKR_9v-paacK-60" value="是" style="edgeLabel;html=1;align=center;verticalAlign=middle;resizable=0;points=[];" parent="ESgD27TMCKR_9v-paacK-59" vertex="1" connectable="0">
          <mxGeometry x="-0.0717" y="2" relative="1" as="geometry">
            <mxPoint as="offset" />
          </mxGeometry>
        </mxCell>
        <mxCell id="ESgD27TMCKR_9v-paacK-48" value="择校活动是否结束" style="rhombus;whiteSpace=wrap;html=1;rounded=0;" parent="1" vertex="1">
          <mxGeometry x="940" y="880" width="140" height="81" as="geometry" />
        </mxCell>
        <mxCell id="ESgD27TMCKR_9v-paacK-58" value="择校报告" style="whiteSpace=wrap;html=1;rounded=0;" parent="1" vertex="1">
          <mxGeometry x="950" y="1051.5" width="120" height="60" as="geometry" />
        </mxCell>
        <mxCell id="F_RI2bbC2qj9kSmaWtf--4" value="idList" style="edgeStyle=orthogonalEdgeStyle;rounded=0;orthogonalLoop=1;jettySize=auto;html=1;" edge="1" parent="1" source="F_RI2bbC2qj9kSmaWtf--1" target="F_RI2bbC2qj9kSmaWtf--3">
          <mxGeometry relative="1" as="geometry" />
        </mxCell>
        <mxCell id="F_RI2bbC2qj9kSmaWtf--1" value="&lt;span style=&quot;font-size: 12px;&quot;&gt;university_college_project&lt;/span&gt;" style="rounded=0;whiteSpace=wrap;html=1;" vertex="1" parent="1">
          <mxGeometry x="520" y="1410" width="148" height="60.5" as="geometry" />
        </mxCell>
        <mxCell id="F_RI2bbC2qj9kSmaWtf--6" value="" style="edgeStyle=orthogonalEdgeStyle;rounded=0;orthogonalLoop=1;jettySize=auto;html=1;" edge="1" parent="1" source="F_RI2bbC2qj9kSmaWtf--3" target="F_RI2bbC2qj9kSmaWtf--5">
          <mxGeometry relative="1" as="geometry" />
        </mxCell>
        <mxCell id="F_RI2bbC2qj9kSmaWtf--7" value="type:1&amp;nbsp; +&amp;nbsp; 择分&amp;gt;total" style="edgeLabel;html=1;align=center;verticalAlign=middle;resizable=0;points=[];" vertex="1" connectable="0" parent="F_RI2bbC2qj9kSmaWtf--6">
          <mxGeometry x="-0.4604" relative="1" as="geometry">
            <mxPoint x="15" as="offset" />
          </mxGeometry>
        </mxCell>
        <mxCell id="F_RI2bbC2qj9kSmaWtf--3" value="university_project_score" style="whiteSpace=wrap;html=1;rounded=0;" vertex="1" parent="1">
          <mxGeometry x="810" y="1412" width="173" height="57" as="geometry" />
        </mxCell>
        <mxCell id="F_RI2bbC2qj9kSmaWtf--9" value="" style="edgeStyle=orthogonalEdgeStyle;rounded=0;orthogonalLoop=1;jettySize=auto;html=1;" edge="1" parent="1" source="F_RI2bbC2qj9kSmaWtf--5" target="F_RI2bbC2qj9kSmaWtf--8">
          <mxGeometry relative="1" as="geometry" />
        </mxCell>
        <mxCell id="F_RI2bbC2qj9kSmaWtf--10" value="&lt;span style=&quot;font-size: 12px; text-wrap: wrap;&quot;&gt;college_project_idList&lt;/span&gt;" style="edgeLabel;html=1;align=center;verticalAlign=middle;resizable=0;points=[];" vertex="1" connectable="0" parent="F_RI2bbC2qj9kSmaWtf--9">
          <mxGeometry x="0.2362" y="1" relative="1" as="geometry">
            <mxPoint as="offset" />
          </mxGeometry>
        </mxCell>
        <mxCell id="F_RI2bbC2qj9kSmaWtf--5" value="university_project_score" style="whiteSpace=wrap;html=1;rounded=0;" vertex="1" parent="1">
          <mxGeometry x="1206" y="1412" width="170" height="61.5" as="geometry" />
        </mxCell>
        <mxCell id="F_RI2bbC2qj9kSmaWtf--61" style="edgeStyle=orthogonalEdgeStyle;rounded=0;orthogonalLoop=1;jettySize=auto;html=1;" edge="1" parent="1" source="F_RI2bbC2qj9kSmaWtf--8">
          <mxGeometry relative="1" as="geometry">
            <mxPoint x="1291" y="1906" as="targetPoint" />
          </mxGeometry>
        </mxCell>
        <mxCell id="F_RI2bbC2qj9kSmaWtf--70" value="&lt;span style=&quot;font-size: 12px; text-wrap: wrap;&quot;&gt;college_project_idList&lt;/span&gt;" style="edgeLabel;html=1;align=center;verticalAlign=middle;resizable=0;points=[];" vertex="1" connectable="0" parent="F_RI2bbC2qj9kSmaWtf--61">
          <mxGeometry x="-0.2298" y="2" relative="1" as="geometry">
            <mxPoint as="offset" />
          </mxGeometry>
        </mxCell>
        <mxCell id="F_RI2bbC2qj9kSmaWtf--8" value="&lt;span style=&quot;font-size: 12px;&quot;&gt;university_project_score&lt;/span&gt;" style="whiteSpace=wrap;html=1;rounded=0;" vertex="1" parent="1">
          <mxGeometry x="1218" y="1596" width="146" height="71" as="geometry" />
        </mxCell>
        <mxCell id="F_RI2bbC2qj9kSmaWtf--13" value="" style="edgeStyle=orthogonalEdgeStyle;rounded=0;orthogonalLoop=1;jettySize=auto;html=1;" edge="1" parent="1" source="F_RI2bbC2qj9kSmaWtf--11">
          <mxGeometry relative="1" as="geometry">
            <mxPoint x="764" y="1683" as="targetPoint" />
          </mxGeometry>
        </mxCell>
        <mxCell id="F_RI2bbC2qj9kSmaWtf--54" style="edgeStyle=orthogonalEdgeStyle;rounded=0;orthogonalLoop=1;jettySize=auto;html=1;" edge="1" parent="1" source="F_RI2bbC2qj9kSmaWtf--11">
          <mxGeometry relative="1" as="geometry">
            <mxPoint x="1235.0034637451172" y="1556.9028015136719" as="targetPoint" />
            <Array as="points">
              <mxPoint x="928" y="1557" />
              <mxPoint x="928" y="1557" />
            </Array>
          </mxGeometry>
        </mxCell>
        <mxCell id="F_RI2bbC2qj9kSmaWtf--11" value="冲-择分" style="whiteSpace=wrap;html=1;" vertex="1" parent="1">
          <mxGeometry x="704" y="1543" width="120" height="60" as="geometry" />
        </mxCell>
        <mxCell id="F_RI2bbC2qj9kSmaWtf--17" value="" style="edgeStyle=orthogonalEdgeStyle;rounded=0;orthogonalLoop=1;jettySize=auto;html=1;" edge="1" parent="1" source="F_RI2bbC2qj9kSmaWtf--15" target="F_RI2bbC2qj9kSmaWtf--16">
          <mxGeometry relative="1" as="geometry" />
        </mxCell>
        <mxCell id="F_RI2bbC2qj9kSmaWtf--18" value="是" style="edgeLabel;html=1;align=center;verticalAlign=middle;resizable=0;points=[];" vertex="1" connectable="0" parent="F_RI2bbC2qj9kSmaWtf--17">
          <mxGeometry x="-0.1162" relative="1" as="geometry">
            <mxPoint as="offset" />
          </mxGeometry>
        </mxCell>
        <mxCell id="F_RI2bbC2qj9kSmaWtf--22" value="" style="edgeStyle=orthogonalEdgeStyle;rounded=0;orthogonalLoop=1;jettySize=auto;html=1;" edge="1" parent="1" source="F_RI2bbC2qj9kSmaWtf--15" target="F_RI2bbC2qj9kSmaWtf--21">
          <mxGeometry relative="1" as="geometry" />
        </mxCell>
        <mxCell id="F_RI2bbC2qj9kSmaWtf--23" value="否" style="edgeLabel;html=1;align=center;verticalAlign=middle;resizable=0;points=[];" vertex="1" connectable="0" parent="F_RI2bbC2qj9kSmaWtf--22">
          <mxGeometry x="-0.2592" y="-2" relative="1" as="geometry">
            <mxPoint as="offset" />
          </mxGeometry>
        </mxCell>
        <mxCell id="F_RI2bbC2qj9kSmaWtf--15" value="是否小于240" style="rhombus;whiteSpace=wrap;html=1;" vertex="1" parent="1">
          <mxGeometry x="706" y="1685" width="121" height="65" as="geometry" />
        </mxCell>
        <mxCell id="F_RI2bbC2qj9kSmaWtf--20" value="" style="edgeStyle=orthogonalEdgeStyle;rounded=0;orthogonalLoop=1;jettySize=auto;html=1;" edge="1" parent="1" source="F_RI2bbC2qj9kSmaWtf--16" target="F_RI2bbC2qj9kSmaWtf--19">
          <mxGeometry relative="1" as="geometry">
            <Array as="points">
              <mxPoint x="767" y="1946" />
              <mxPoint x="767" y="1946" />
            </Array>
          </mxGeometry>
        </mxCell>
        <mxCell id="F_RI2bbC2qj9kSmaWtf--16" value="择分+10" style="whiteSpace=wrap;html=1;" vertex="1" parent="1">
          <mxGeometry x="706.5" y="1832.5" width="120" height="60" as="geometry" />
        </mxCell>
        <mxCell id="F_RI2bbC2qj9kSmaWtf--19" value="建议分数&amp;lt;= 择分+10&lt;br&gt;&amp;amp;&amp;amp; 建议分数&amp;gt; 择分" style="whiteSpace=wrap;html=1;" vertex="1" parent="1">
          <mxGeometry x="692" y="1973" width="162" height="47" as="geometry" />
        </mxCell>
        <mxCell id="F_RI2bbC2qj9kSmaWtf--25" value="" style="edgeStyle=orthogonalEdgeStyle;rounded=0;orthogonalLoop=1;jettySize=auto;html=1;" edge="1" parent="1" source="F_RI2bbC2qj9kSmaWtf--21" target="F_RI2bbC2qj9kSmaWtf--24">
          <mxGeometry relative="1" as="geometry" />
        </mxCell>
        <mxCell id="F_RI2bbC2qj9kSmaWtf--21" value="择分+5" style="whiteSpace=wrap;html=1;" vertex="1" parent="1">
          <mxGeometry x="974" y="1687.5" width="120" height="60" as="geometry" />
        </mxCell>
        <mxCell id="F_RI2bbC2qj9kSmaWtf--24" value="建议分数&amp;lt;= 择分+5&lt;br&gt;&amp;amp;&amp;amp; 建议分数&amp;gt; 择分" style="whiteSpace=wrap;html=1;" vertex="1" parent="1">
          <mxGeometry x="974" y="1827.5" width="120" height="60" as="geometry" />
        </mxCell>
        <mxCell id="F_RI2bbC2qj9kSmaWtf--26" value="" style="edgeStyle=orthogonalEdgeStyle;rounded=0;orthogonalLoop=1;jettySize=auto;html=1;" edge="1" parent="1" source="F_RI2bbC2qj9kSmaWtf--27">
          <mxGeometry relative="1" as="geometry">
            <mxPoint x="1720" y="1669" as="targetPoint" />
          </mxGeometry>
        </mxCell>
        <mxCell id="F_RI2bbC2qj9kSmaWtf--59" style="edgeStyle=orthogonalEdgeStyle;rounded=0;orthogonalLoop=1;jettySize=auto;html=1;" edge="1" parent="1" source="F_RI2bbC2qj9kSmaWtf--27">
          <mxGeometry relative="1" as="geometry">
            <mxPoint x="1365.0034637451172" y="1559" as="targetPoint" />
          </mxGeometry>
        </mxCell>
        <mxCell id="F_RI2bbC2qj9kSmaWtf--27" value="&lt;meta charset=&quot;utf-8&quot;&gt;&lt;span style=&quot;color: rgb(0, 0, 0); font-family: Helvetica; font-size: 12px; font-style: normal; font-variant-ligatures: normal; font-variant-caps: normal; font-weight: 400; letter-spacing: normal; orphans: 2; text-align: center; text-indent: 0px; text-transform: none; widows: 2; word-spacing: 0px; -webkit-text-stroke-width: 0px; white-space: normal; background-color: rgb(255, 255, 255); text-decoration-thickness: initial; text-decoration-style: initial; text-decoration-color: initial; display: inline !important; float: none;&quot;&gt;择分-5&lt;/span&gt;" style="whiteSpace=wrap;html=1;" vertex="1" parent="1">
          <mxGeometry x="1660" y="1529" width="120" height="60" as="geometry" />
        </mxCell>
        <mxCell id="F_RI2bbC2qj9kSmaWtf--35" value="建议分数&amp;lt;= 择分&lt;br&gt;&amp;amp;&amp;amp; 建议分数&amp;gt; = 择分-5" style="whiteSpace=wrap;html=1;" vertex="1" parent="1">
          <mxGeometry x="1660" y="1799" width="167" height="87" as="geometry" />
        </mxCell>
        <mxCell id="F_RI2bbC2qj9kSmaWtf--42" style="edgeStyle=orthogonalEdgeStyle;rounded=0;orthogonalLoop=1;jettySize=auto;html=1;" edge="1" parent="1" source="F_RI2bbC2qj9kSmaWtf--41">
          <mxGeometry relative="1" as="geometry">
            <mxPoint x="1720" y="1796.7917175292969" as="targetPoint" />
          </mxGeometry>
        </mxCell>
        <mxCell id="F_RI2bbC2qj9kSmaWtf--41" value="择分-5" style="rounded=0;whiteSpace=wrap;html=1;" vertex="1" parent="1">
          <mxGeometry x="1660" y="1669" width="120" height="60" as="geometry" />
        </mxCell>
        <mxCell id="F_RI2bbC2qj9kSmaWtf--43" value="" style="edgeStyle=orthogonalEdgeStyle;rounded=0;orthogonalLoop=1;jettySize=auto;html=1;" edge="1" parent="1" source="F_RI2bbC2qj9kSmaWtf--44">
          <mxGeometry relative="1" as="geometry">
            <mxPoint x="1978" y="1669" as="targetPoint" />
          </mxGeometry>
        </mxCell>
        <mxCell id="F_RI2bbC2qj9kSmaWtf--60" style="edgeStyle=orthogonalEdgeStyle;rounded=0;orthogonalLoop=1;jettySize=auto;html=1;" edge="1" parent="1" source="F_RI2bbC2qj9kSmaWtf--44">
          <mxGeometry relative="1" as="geometry">
            <mxPoint x="1789.0034637451172" y="1560.5" as="targetPoint" />
          </mxGeometry>
        </mxCell>
        <mxCell id="F_RI2bbC2qj9kSmaWtf--44" value="保-择分" style="whiteSpace=wrap;html=1;" vertex="1" parent="1">
          <mxGeometry x="1918" y="1532" width="120" height="57" as="geometry" />
        </mxCell>
        <mxCell id="F_RI2bbC2qj9kSmaWtf--45" value="建议分数&amp;lt; 择分-5&lt;br&gt;&amp;amp;&amp;amp; 建议分数&amp;gt; = 择分-10" style="whiteSpace=wrap;html=1;" vertex="1" parent="1">
          <mxGeometry x="1918" y="1799" width="167" height="87" as="geometry" />
        </mxCell>
        <mxCell id="F_RI2bbC2qj9kSmaWtf--46" style="edgeStyle=orthogonalEdgeStyle;rounded=0;orthogonalLoop=1;jettySize=auto;html=1;" edge="1" parent="1" source="F_RI2bbC2qj9kSmaWtf--47">
          <mxGeometry relative="1" as="geometry">
            <mxPoint x="1978" y="1796.7917175292969" as="targetPoint" />
          </mxGeometry>
        </mxCell>
        <mxCell id="F_RI2bbC2qj9kSmaWtf--47" value="择分-10，择分-5" style="rounded=0;whiteSpace=wrap;html=1;" vertex="1" parent="1">
          <mxGeometry x="1918" y="1669" width="120" height="60" as="geometry" />
        </mxCell>
        <mxCell id="F_RI2bbC2qj9kSmaWtf--72" style="edgeStyle=orthogonalEdgeStyle;rounded=0;orthogonalLoop=1;jettySize=auto;html=1;" edge="1" parent="1" source="F_RI2bbC2qj9kSmaWtf--64">
          <mxGeometry relative="1" as="geometry">
            <mxPoint x="1307.5" y="2066.236053466797" as="targetPoint" />
          </mxGeometry>
        </mxCell>
        <mxCell id="F_RI2bbC2qj9kSmaWtf--103" value="&lt;span style=&quot;font-size: 12px; text-wrap: wrap;&quot;&gt;univesityIdLIst&lt;/span&gt;" style="edgeLabel;html=1;align=center;verticalAlign=middle;resizable=0;points=[];" vertex="1" connectable="0" parent="F_RI2bbC2qj9kSmaWtf--72">
          <mxGeometry x="-0.2175" relative="1" as="geometry">
            <mxPoint x="63" y="-1" as="offset" />
          </mxGeometry>
        </mxCell>
        <mxCell id="F_RI2bbC2qj9kSmaWtf--64" value="&lt;span style=&quot;font-size: 12px;&quot;&gt;university_college_project&lt;/span&gt;" style="rounded=0;whiteSpace=wrap;html=1;" vertex="1" parent="1">
          <mxGeometry x="1186" y="1911" width="243" height="60" as="geometry" />
        </mxCell>
        <mxCell id="F_RI2bbC2qj9kSmaWtf--92" value="" style="edgeStyle=orthogonalEdgeStyle;rounded=0;orthogonalLoop=1;jettySize=auto;html=1;" edge="1" parent="1" source="F_RI2bbC2qj9kSmaWtf--71" target="F_RI2bbC2qj9kSmaWtf--91">
          <mxGeometry relative="1" as="geometry" />
        </mxCell>
        <mxCell id="F_RI2bbC2qj9kSmaWtf--102" value="排名" style="edgeLabel;html=1;align=center;verticalAlign=middle;resizable=0;points=[];" vertex="1" connectable="0" parent="F_RI2bbC2qj9kSmaWtf--92">
          <mxGeometry x="-0.0375" relative="1" as="geometry">
            <mxPoint as="offset" />
          </mxGeometry>
        </mxCell>
        <mxCell id="F_RI2bbC2qj9kSmaWtf--71" value="univesityIdLIst" style="rounded=0;whiteSpace=wrap;html=1;" vertex="1" parent="1">
          <mxGeometry x="1244" y="2068" width="120" height="60" as="geometry" />
        </mxCell>
        <mxCell id="F_RI2bbC2qj9kSmaWtf--89" style="edgeStyle=orthogonalEdgeStyle;rounded=0;orthogonalLoop=1;jettySize=auto;html=1;" edge="1" parent="1" source="F_RI2bbC2qj9kSmaWtf--73">
          <mxGeometry relative="1" as="geometry">
            <mxPoint x="1560" y="2244.124969482422" as="targetPoint" />
          </mxGeometry>
        </mxCell>
        <mxCell id="F_RI2bbC2qj9kSmaWtf--90" value="招生人数、复录比" style="edgeLabel;html=1;align=center;verticalAlign=middle;resizable=0;points=[];" vertex="1" connectable="0" parent="F_RI2bbC2qj9kSmaWtf--89">
          <mxGeometry x="-0.2697" y="-1" relative="1" as="geometry">
            <mxPoint as="offset" />
          </mxGeometry>
        </mxCell>
        <mxCell id="F_RI2bbC2qj9kSmaWtf--73" value="college_project_idList" style="rounded=0;whiteSpace=wrap;html=1;" vertex="1" parent="1">
          <mxGeometry x="1500" y="2072" width="120" height="60" as="geometry" />
        </mxCell>
        <mxCell id="F_RI2bbC2qj9kSmaWtf--76" value="" style="endArrow=classic;html=1;rounded=0;entryX=0.567;entryY=-0.013;entryDx=0;entryDy=0;entryPerimeter=0;" edge="1" parent="1" target="F_RI2bbC2qj9kSmaWtf--73">
          <mxGeometry width="50" height="50" relative="1" as="geometry">
            <mxPoint x="1350" y="1763" as="sourcePoint" />
            <mxPoint x="1628" y="1902" as="targetPoint" />
            <Array as="points">
              <mxPoint x="1568" y="1763" />
            </Array>
          </mxGeometry>
        </mxCell>
        <mxCell id="F_RI2bbC2qj9kSmaWtf--93" style="edgeStyle=orthogonalEdgeStyle;rounded=0;orthogonalLoop=1;jettySize=auto;html=1;" edge="1" parent="1" source="F_RI2bbC2qj9kSmaWtf--77">
          <mxGeometry relative="1" as="geometry">
            <mxPoint x="1126" y="2352.124969482422" as="targetPoint" />
          </mxGeometry>
        </mxCell>
        <mxCell id="F_RI2bbC2qj9kSmaWtf--95" value="有序的" style="edgeLabel;html=1;align=center;verticalAlign=middle;resizable=0;points=[];" vertex="1" connectable="0" parent="F_RI2bbC2qj9kSmaWtf--93">
          <mxGeometry x="-0.1019" relative="1" as="geometry">
            <mxPoint as="offset" />
          </mxGeometry>
        </mxCell>
        <mxCell id="F_RI2bbC2qj9kSmaWtf--77" value="&lt;span style=&quot;font-size: 12px;&quot;&gt;university_nature&lt;/span&gt;" style="whiteSpace=wrap;html=1;rounded=0;" vertex="1" parent="1">
          <mxGeometry x="1066" y="2230" width="120" height="60" as="geometry" />
        </mxCell>
        <mxCell id="F_RI2bbC2qj9kSmaWtf--82" style="edgeStyle=orthogonalEdgeStyle;rounded=0;orthogonalLoop=1;jettySize=auto;html=1;entryX=0.433;entryY=0.022;entryDx=0;entryDy=0;entryPerimeter=0;" edge="1" parent="1" source="F_RI2bbC2qj9kSmaWtf--71" target="F_RI2bbC2qj9kSmaWtf--77">
          <mxGeometry relative="1" as="geometry" />
        </mxCell>
        <mxCell id="F_RI2bbC2qj9kSmaWtf--85" value="985&amp;gt;211&amp;gt;双一流" style="edgeLabel;html=1;align=center;verticalAlign=middle;resizable=0;points=[];" vertex="1" connectable="0" parent="F_RI2bbC2qj9kSmaWtf--82">
          <mxGeometry x="0.5083" y="-3" relative="1" as="geometry">
            <mxPoint as="offset" />
          </mxGeometry>
        </mxCell>
        <mxCell id="F_RI2bbC2qj9kSmaWtf--100" value="" style="edgeStyle=orthogonalEdgeStyle;rounded=0;orthogonalLoop=1;jettySize=auto;html=1;" edge="1" parent="1" source="F_RI2bbC2qj9kSmaWtf--84" target="F_RI2bbC2qj9kSmaWtf--99">
          <mxGeometry relative="1" as="geometry" />
        </mxCell>
        <mxCell id="F_RI2bbC2qj9kSmaWtf--101" value="有序的" style="edgeLabel;html=1;align=center;verticalAlign=middle;resizable=0;points=[];" vertex="1" connectable="0" parent="F_RI2bbC2qj9kSmaWtf--100">
          <mxGeometry x="-0.3958" relative="1" as="geometry">
            <mxPoint as="offset" />
          </mxGeometry>
        </mxCell>
        <mxCell id="F_RI2bbC2qj9kSmaWtf--84" value="&lt;span style=&quot;font-size: 12px;&quot;&gt;university_project_admit&lt;/span&gt;" style="rounded=0;whiteSpace=wrap;html=1;" vertex="1" parent="1">
          <mxGeometry x="1500" y="2249" width="139" height="61" as="geometry" />
        </mxCell>
        <mxCell id="F_RI2bbC2qj9kSmaWtf--97" value="" style="edgeStyle=orthogonalEdgeStyle;rounded=0;orthogonalLoop=1;jettySize=auto;html=1;" edge="1" parent="1" source="F_RI2bbC2qj9kSmaWtf--91" target="F_RI2bbC2qj9kSmaWtf--96">
          <mxGeometry relative="1" as="geometry" />
        </mxCell>
        <mxCell id="F_RI2bbC2qj9kSmaWtf--98" value="有序的" style="edgeLabel;html=1;align=center;verticalAlign=middle;resizable=0;points=[];" vertex="1" connectable="0" parent="F_RI2bbC2qj9kSmaWtf--97">
          <mxGeometry x="-0.0277" y="1" relative="1" as="geometry">
            <mxPoint as="offset" />
          </mxGeometry>
        </mxCell>
        <mxCell id="F_RI2bbC2qj9kSmaWtf--91" value="&lt;span style=&quot;font-size: 12px;&quot;&gt;university&lt;/span&gt;" style="whiteSpace=wrap;html=1;rounded=0;" vertex="1" parent="1">
          <mxGeometry x="1244" y="2228" width="120" height="60" as="geometry" />
        </mxCell>
        <mxCell id="F_RI2bbC2qj9kSmaWtf--94" value="univesityIdLIst" style="rounded=0;whiteSpace=wrap;html=1;" vertex="1" parent="1">
          <mxGeometry x="1062" y="2356" width="120" height="60" as="geometry" />
        </mxCell>
        <mxCell id="F_RI2bbC2qj9kSmaWtf--96" value="univesityIdLIst" style="whiteSpace=wrap;html=1;rounded=0;" vertex="1" parent="1">
          <mxGeometry x="1250" y="2354" width="120" height="60" as="geometry" />
        </mxCell>
        <mxCell id="F_RI2bbC2qj9kSmaWtf--99" value="college_project_idList" style="whiteSpace=wrap;html=1;rounded=0;" vertex="1" parent="1">
          <mxGeometry x="1509.5" y="2370" width="120" height="60" as="geometry" />
        </mxCell>
        <mxCell id="F_RI2bbC2qj9kSmaWtf--104" value="&lt;span style=&quot;color: rgb(0, 0, 0); font-family: Helvetica; font-size: 12px; font-style: normal; font-variant-ligatures: normal; font-variant-caps: normal; font-weight: 400; letter-spacing: normal; orphans: 2; text-align: center; text-indent: 0px; text-transform: none; widows: 2; word-spacing: 0px; -webkit-text-stroke-width: 0px; white-space: normal; background-color: rgb(255, 255, 255); text-decoration-thickness: initial; text-decoration-style: initial; text-decoration-color: initial; display: inline !important; float: none;&quot;&gt;college_project_idList----------》&lt;/span&gt;" style="text;whiteSpace=wrap;html=1;" vertex="1" parent="1">
          <mxGeometry x="1161" y="1995" width="169" height="36" as="geometry" />
        </mxCell>
      </root>
    </mxGraphModel>
  </diagram>
</mxfile>
